<?xml version="1.0" standalone="no"?>
<!DOCTYPE svg PUBLIC "-//W3C//DTD SVG 1.1//EN" "http://www.w3.org/Graphics/SVG/1.1/DTD/svg11.dtd" >
<svg xmlns="http://www.w3.org/2000/svg">
<metadata>Generated by IcoMoon</metadata>
<defs>
<font id="pddIcon" horiz-adv-x="1024">
<font-face units-per-em="1024" ascent="960" descent="-64" />
<missing-glyph horiz-adv-x="1024" />
<glyph unicode="&#x20;" horiz-adv-x="512" d="" />
<glyph unicode="&#xe900;" glyph-name="daifahuo" d="M512 907.31c-252.217 0-457.404-205.187-457.404-457.404s205.187-457.418 457.404-457.418c252.217 0 457.418 205.187 457.418 457.418-0.014 252.203-205.201 457.404-457.418 457.404zM512 48.932c-221.086 0-400.959 179.873-400.959 400.973-0.014 221.086 179.858 400.959 400.959 400.959s400.973-179.873 400.973-400.959c0-221.101-179.873-400.973-400.973-400.973zM99.607 733.95c-17.346 17.895-28.039 42.326-28.039 69.256 0 4.040 0.241 8.024 0.708 11.938l-0.046-0.473c3.115 27.227 16.841 50.756 36.873 66.7l0.202 0.155c16.84 13.528 38.474 21.712 62.020 21.712 4.044 0 8.031-0.241 11.949-0.711l-0.473 0.046c27.228-3.112 50.758-16.838 66.699-36.873l0.155-0.202 44.172 35.127c-25.19 31.675-62.014 53.161-103.91 57.971l-0.717 0.067c-41.498 4.75-82.342-6.969-115.023-32.951-31.675-25.19-53.161-62.014-57.971-103.91l-0.067-0.717c-0.655-5.368-1.029-11.582-1.029-17.884 0-42.156 16.726-80.405 43.904-108.473l-0.040 0.042 40.631 39.18zM843.046 903.086c54.71 5.105 103.703-35.113 108.936-89.936 2.844-29.78-7.68-59.019-28.884-80.195l39.905-39.92c28.342 28.235 45.879 67.299 45.879 110.459 0 5.293-0.264 10.525-0.779 15.682l0.053-0.651c-8.206 85.798-84.802 149.055-170.487 140.735-42.755-4.080-79.972-24.933-105.483-55.813l-0.21-0.262 43.532-35.938c16.432 19.906 40.215 33.234 67.137 35.807l0.401 0.031zM536.802 684.943h-56.431v-268.799l157.744-157.744 39.905 39.905-141.219 141.219zM98.825-63.943l-35.013 44.271 134.976 106.746 35.013-44.271zM925.189-64l-134.961 106.732 35.013 44.271 134.961-106.732z" />
<glyph unicode="&#xe901;" glyph-name="daifukuan" d="M853.376-64h-682.688c-94.144 0-170.688 80-170.688 178.368v667.264c0 98.368 76.544 178.368 170.688 178.368h682.688c94.080 0 170.624-80 170.624-178.368v-667.264c0-98.368-76.544-178.368-170.624-178.368zM170.688 911.296c-67.2 0-121.92-58.176-121.92-129.6v-667.264c0-71.488 54.656-129.6 121.92-129.6h682.688c67.2 0 121.856 58.112 121.856 129.6v667.2c0 71.488-54.656 129.6-121.856 129.6h-682.688zM780.16 399.232c-25.872 1.367-46.333 22.678-46.333 48.768s20.461 47.401 46.211 48.763l0.121 0.005c26.934 0 48.768-21.834 48.768-48.768s-21.834-48.768-48.768-48.768v0zM780.224 448h-0.128l0.064-24.32 0.064 24.32zM999.616 293.632h-316.608c-85.246 0.109-154.323 69.186-154.432 154.422v0.010c0.146 85.219 69.208 154.259 154.421 154.368h316.619c13.467 0 24.384-10.917 24.384-24.384s-10.917-24.384-24.384-24.384v0h-316.608c-58.24 0-105.6-47.424-105.6-105.6 0-58.304 47.36-105.664 105.6-105.664h316.608c13.467 0 24.384-10.917 24.384-24.384s-10.917-24.384-24.384-24.384v0z" />
<glyph unicode="&#xe902;" glyph-name="daipingjia" d="M533.041 211.619l-54.509 1.931-0.894 0.102c-60.835 6.869-118.275 28.29-166.11 61.946-51.827 36.468-89.452 85.694-108.808 142.357-23.917 69.988-20.962 147.928-18.106 223.301 0.893 23.567 1.737 45.826 1.737 67.41 0 27.645 23.427 50.917 50.818 50.204 42.999-1.107 77.068-11.163 113.389-27.548 10.298 26.618 24.808 50.585 43.323 71.508 43.031 48.635 80.551 72.277 114.7 72.277 22.050 0 46.112-9.759 71.515-29.005 17.584-13.321 35.593-31.216 49.41-49.095 16.704-21.631 29.115-44.287 37.57-68.686 39.285 16.588 77.647 29.196 123.272 30.547 0.462 0.014 0.942 0.021 1.424 0.021 12.899 0 25.177-5.19 34.574-14.615 9.503-9.531 14.932-22.535 14.893-35.678-0.099-40.233-0.848-81.071-1.574-120.564-0.165-8.975-0.33-17.95-0.487-26.924-0.111-6.368-0.155-12.977-0.197-19.369-0.25-37.621-0.509-76.523-13.335-114.137-41.927-123.157-159.137-209.942-291.662-215.943l-0.942-0.041zM482.001 260.2l50.791-1.801c113.094 5.494 212.92 79.453 248.607 184.28 10.38 30.44 10.613 65.483 10.839 99.373 0.043 6.515 0.088 13.252 0.203 19.875 0.158 8.991 0.322 17.978 0.488 26.965 0.722 39.311 1.468 79.96 1.567 119.832 0.002 0.648-0.385 1.678-1.252 2.547-0.641 0.643-1.233 0.876-1.474 0.876-46.687-1.382-85.044-17.015-130.342-37.308l-26.235-11.753-6.152 28.081c-6.165 28.147-18.114 53.421-36.527 77.264-22.451 29.051-59.502 59.933-83.935 59.933-11.091 0-36.191-7.341-79.694-56.509-19.638-22.191-33.705-48.825-41.809-79.162l-7.417-27.759-25.668 12.914c-41.467 20.864-74.076 33.164-118.042 34.296 0 0 0 0 0 0-1.024 0-2.857-1.788-2.857-3.477 0-22.47-0.86-45.16-1.77-69.181-2.694-71.11-5.481-144.64 15.629-206.418 31.499-92.216 123.703-159.994 235.049-172.868zM404.729 60.124c-8.117 0-16.003 4.233-20.317 11.786-29.735 52.067-78.075 119.133-139.501 142.951-24.965 9.669-58.6 11.198-87.769 3.984-18.058-4.467-50.221-16.413-62.73-46.233-4.993-11.902-18.691-17.503-30.593-12.512-11.903 4.993-17.505 18.69-12.512 30.593 15.13 36.065 48.73 62.178 94.612 73.527 38.589 9.545 81.908 7.385 115.882-5.775 33.358-12.934 65.785-36.411 96.386-69.784 23.532-25.662 46.011-57.146 66.814-93.57 6.401-11.208 2.504-25.484-8.705-31.886-3.654-2.087-7.638-3.080-11.567-3.080zM619.269 60.124c-3.929 0-7.911 0.992-11.568 3.080-11.208 6.402-15.106 20.678-8.705 31.886 20.803 36.428 43.283 67.908 66.815 93.57 30.601 33.373 63.028 56.852 96.379 69.782 33.981 13.161 77.303 15.32 115.889 5.777 45.883-11.348 79.483-37.46 94.612-73.529 4.993-11.902-0.61-25.599-12.513-30.592s-25.6 0.608-30.593 12.512c-12.509 29.82-44.67 41.765-62.73 46.233-29.17 7.215-62.805 5.687-87.775-3.986-61.419-23.813-109.759-90.883-139.494-142.949-4.312-7.552-12.2-11.785-20.317-11.785zM512.001 20.892c-12.907 0-23.371 10.463-23.371 23.37v190.746c0 12.907 10.464 23.37 23.371 23.37s23.371-10.463 23.371-23.37v-190.746c0-12.907-10.464-23.37-23.371-23.37z" />
<glyph unicode="&#xe903;" glyph-name="daishouhuo" d="M422.4 364.8v204.8c0 6.4-6.4 12.8-12.8 12.8 0 0 0 0 0 0-6.4 0-6.4-6.4-6.4-12.8v-179.2h-179.2c-6.4 0-12.8-6.4-12.8-12.8s6.4-12.8 12.8-12.8h198.4zM889.6 960h-505.6c-57.6 0-108.8-51.2-108.8-115.2v-121.6c0-19.2-6.4-38.4-25.6-51.2l-192-185.6c-25.6-19.2-32-38.4-32-64v-313.6c0-12.8 12.8-25.6 25.6-25.6s25.6 12.8 25.6 25.6v313.6c0 12.8 6.4 19.2 12.8 32l198.4 179.2c25.6 19.2 38.4 57.6 38.4 89.6v121.6c0 38.4 25.6 70.4 57.6 70.4h505.6c32 0 57.6-32 57.6-70.4v-736c0-12.8 12.8-25.6 25.6-25.6s25.6 12.8 25.6 25.6v729.6c0 70.4-44.8 121.6-108.8 121.6zM768 172.8c-57.6 0-102.4-38.4-115.2-89.6h-268.8c-12.8 44.8-64 89.6-115.2 89.6-64 0-115.2-51.2-115.2-115.2s51.2-121.6 115.2-121.6c51.2 0 102.4 38.4 115.2 89.6h268.8c12.8-51.2 57.6-89.6 115.2-89.6 64 0 115.2 51.2 115.2 115.2s-51.2 121.6-115.2 121.6z" />
<glyph unicode="&#xe904;" glyph-name="dizhi" d="M1024-15.3h-1024l109.3 427.3h131.1v-56.9h-86.9l-80.1-313.4h873.9l-94.3 313.4h-76.1v56.9h118.4zM510.6 115.5l-20 19.8c-10.8 10.7-264.3 264.2-264.3 476.5 0 156.8 127.8 284.4 284.9 284.4s284.9-127.6 284.9-284.4c0-212.4-254.6-465.8-265.5-476.5l-20-19.8zM511.2 839.2c-125.7 0-227.9-102-227.9-227.4 0-156.6 168.4-351.7 227.3-415.1 59.1 63.4 228.4 258.7 228.4 415.1 0.1 125.4-102.2 227.4-227.8 227.4zM515.5 464.7c-78.5 0-142.4 63.9-142.4 142.4s63.9 142.5 142.4 142.5 142.4-63.9 142.4-142.4-63.9-142.5-142.4-142.5zM515.5 692.6c-47.1 0-85.5-38.3-85.5-85.5s38.3-85.5 85.5-85.5 85.5 38.4 85.5 85.6-38.4 85.4-85.5 85.4z" />
<glyph unicode="&#xe905;" glyph-name="haofangtuoiconfont_dianpushoucang" d="M978.862 536.394l-75.543 207.556c-12.483 34.291-45.387 57.331-81.879 57.331h-618.881c-36.492 0-69.396-23.040-81.878-57.332l-75.544-207.555c-14.032-38.552-12.211-80.259 5.127-117.441s48.118-65.386 86.669-79.417c32.902-11.976 69.23-12.325 102.294-0.981 21.713 7.45 41.467 19.717 57.723 35.602 28.396-27.906 66.722-43.885 107.537-43.885 40.804 0 79.119 15.967 107.512 43.86 28.393-27.892 66.708-43.86 107.512-43.86 40.815 0 79.141 15.978 107.537 43.885 16.256-15.885 36.010-28.153 57.723-35.602 33.065-11.343 69.392-10.994 102.294 0.981 38.551 14.031 69.331 42.236 86.669 79.417s19.159 78.889 5.127 117.441zM202.535 842.24h618.93c14.139 0 25.6 11.462 25.6 25.6s-11.461 25.6-25.6 25.6h-618.93c-14.139 0-25.6-11.462-25.6-25.6s11.461-25.6 25.6-25.6zM768.157 290.126c-14.292 4.904-28.081 11.45-41.008 19.418-8.43-5.307-18.217-10.387-28.426-14.661l-1.346-0.5c-24.755-10.159-50.953-15.311-77.865-15.311-26.905 0-53.094 5.148-77.843 15.302-11.518 4.756-21.271 9.814-30.528 15.593l0.859-0.5c-8.397-5.279-18.151-10.336-28.323-14.593l-1.346-0.499c-24.749-10.154-50.939-15.302-77.843-15.302-26.912 0-53.109 5.152-77.865 15.311-11.555 4.773-21.342 9.853-30.629 15.66l0.857-0.5c-12.927-7.968-26.717-14.515-41.008-19.418-21.337-7.321-43.657-11.033-66.341-11.033-16.516 0-32.821 1.961-48.703 5.845v-154.378c0-70.579 57.421-128 128-128h491.52c70.579 0 128 57.421 128 128v155.709c-16.103-4.556-34.596-7.175-53.7-7.175-0.043 0-0.086 0-0.129 0h0.007c-22.682 0-45.002 3.711-66.34 11.032z" />
<glyph unicode="&#xe906;" glyph-name="hongbao" d="M603.967 353.205c16.904 0 30.576 13.68 30.576 30.584s-13.672 30.584-30.576 30.584h-18.592l21.936 36.688c2.72 4.484 4.33 9.904 4.33 15.7 0 11.098-5.902 20.817-14.738 26.191l-0.136 0.077c-4.481 2.71-9.895 4.314-15.683 4.314-11.097 0-20.817-5.894-26.2-14.723l-0.077-0.135-40.728-68.111h-4.096l-40.72 68.111c-5.458 8.963-15.176 14.858-26.272 14.858-5.787 0-11.2-1.604-15.818-4.391l0.138 0.077c-8.983-5.442-14.894-15.164-14.894-26.266 0-5.797 1.611-11.217 4.411-15.838l-0.077 0.136 21.936-36.688h-18.624c-16.888 0-30.584-13.68-30.584-30.584s13.688-30.584 30.584-30.584h61.352v-38.232h-61.352c-16.888 0-30.584-13.68-30.584-30.584s13.688-30.584 30.584-30.584h61.352v-132.551c0-16.891 13.693-30.584 30.584-30.584s30.584 13.693 30.584 30.584v0 132.551h61.384c16.904 0 30.576 13.68 30.576 30.584s-13.672 30.584-30.576 30.584h-61.384v38.232h61.384zM796.974 960h-569.948c-65.311 0-118.431-53.136-118.431-118.463v-787.082c0-65.287 53.12-118.455 118.431-118.455h569.948c65.287 0 118.431 53.168 118.431 118.455v787.082c0 65.327-53.144 118.463-118.431 118.463zM227.026 898.832h569.948c31.568 0 57.256-25.704 57.256-57.288v-19.936c-0.64-1.2-1.328-2.368-1.824-3.672-39.84-105.711-179.951-179.535-340.765-179.535-159.663 0-299.534 73.167-340.157 177.895-0.464 1.208-1.12 2.272-1.72 3.384v21.856c0.008 31.592 25.696 57.296 57.264 57.296zM796.974-2.824h-569.948c-31.568 0-57.256 25.688-57.256 57.28v653.835c75.255-80.063 202.55-131.063 341.869-131.063 140.047 0 267.502 51.248 342.589 131.767v-654.539c0-31.592-25.688-57.28-57.256-57.28z" />
<glyph unicode="&#xe907;" glyph-name="icon_save" d="M963.765-64h-903.529c-33.267 0-60.235 26.968-60.235 60.235v0 903.529c0 33.267 26.968 60.235 60.235 60.235v0h903.529c33.267 0 60.235-26.968 60.235-60.235v0-903.529c0-33.267-26.968-60.235-60.235-60.235v0zM803.177 517.602c-7.645 24.072-29.642 41.272-55.707 41.622h-0.041l-97.25 2.47c-25.561 0.344-47.181 16.841-55.14 39.731l-0.126 0.415-32.407 91.738c-8.51 23.612-30.72 40.189-56.802 40.189s-48.292-16.577-56.67-39.77l-0.132-0.42-32.407-91.738c-8.085-23.306-29.705-39.803-55.225-40.146h-0.041l-97.28-2.47c-32.596-0.862-58.691-27.492-58.691-60.215 0-19.422 9.192-36.698 23.464-47.713l0.14-0.104 77.222-59.181c14.485-10.903 23.753-28.064 23.753-47.39 0-6.273-0.977-12.319-2.786-17.992l0.115 0.419-27.678-93.365c-1.585-5.139-2.498-11.046-2.498-17.166 0-33.267 26.968-60.235 60.235-60.235 12.831 0 24.725 4.012 34.496 10.85l-0.194-0.129 80.143 55.176c9.503 6.782 21.354 10.843 34.153 10.843s24.65-4.061 34.334-10.965l-0.181 0.123 80.143-55.176c9.545-6.643 21.382-10.614 34.146-10.614 33.267 0 60.235 26.968 60.235 60.235 0 6.114-0.911 12.016-2.605 17.576l0.112-0.427-27.678 93.365c-1.694 5.255-2.671 11.3-2.671 17.574 0 19.326 9.268 36.487 23.602 47.281l0.151 0.109 77.222 59.181c14.435 10.912 23.666 28.048 23.666 47.34 0 6.793-1.144 13.319-3.251 19.395l0.125-0.416z" />
<glyph unicode="&#xe908;" glyph-name="icon3" d="M326.926 417.364h-88.69c-17.28 0-31.289 14.011-31.289 31.288 0 17.28 14.009 31.288 31.289 31.288h57.403v57.404c0 17.28 14.009 31.289 31.288 31.289s31.288-14.009 31.288-31.289v-88.691c0-17.277-14.009-31.288-31.288-31.288zM873.033 893.832h-441.813c-74.76 0-135.583-60.821-135.583-135.583v-106.592c-66.813-13.582-133.828-28.952-186.685-57.14-72.296-38.559-108.952-97.581-108.952-175.428v-266.073c0-46.005 37.429-83.435 83.435-83.435h89.881c26.892-39.85 72.459-66.106 124.045-66.106s97.154 26.256 124.044 66.106h195.368c26.892-39.85 72.458-66.106 124.043-66.106s97.153 26.256 124.044 66.106h60.318c46.007 0 83.436 37.43 83.436 83.435v605.235c0 74.762-60.824 135.582-135.583 135.582zM297.362 66.049c-47.954 0-86.967 39.015-86.967 86.965 0 47.954 39.013 86.966 86.967 86.966s86.967-39.013 86.967-86.966c0-47.95-39.014-86.965-86.967-86.965zM740.817 66.049c-47.953 0-86.966 39.015-86.966 86.965 0 47.954 39.014 86.966 86.966 86.966 47.954 0 86.967-39.013 86.967-86.966 0.001-47.95-39.013-86.965-86.967-86.965zM946.039 153.015c0-11.5-9.357-20.858-20.859-20.858h-36.305c0.956 6.822 1.487 13.778 1.487 20.858 0 82.461-67.086 149.543-149.543 149.543s-149.542-67.084-149.542-149.543c0-7.081 0.528-14.037 1.486-20.858h-147.343c0.956 6.822 1.487 13.778 1.487 20.858 0 82.461-67.086 149.543-149.543 149.543-82.459 0-149.543-67.084-149.543-149.543 0-7.081 0.529-14.037 1.486-20.858h-65.869c-11.5 0-20.858 9.357-20.858 20.858v266.073c0.001 113.948 102.188 142.609 270.484 176.265l25.153 5.032v157.865c0 40.257 32.751 73.006 73.007 73.006h441.813c40.254 0 73.006-32.75 73.006-73.006v-605.235z" />
<glyph unicode="&#xe909;" glyph-name="liwu" d="M712.832 762.304c62.464 51.008 110.784 112.768 82.496 155.072-30.976 46.208-118.848 41.152-194.88-9.344-33.984-22.528-61.76-50.88-78.4-79.808-4.352-7.68-7.552-15.232-10.24-22.72-12.608 35.392-42.88 72.576-88 102.528-76.096 50.624-163.968 55.616-194.88 9.28-17.216-25.792-15.424-59.904 5.184-95.808 12.416-21.76 50.176-46.272 77.184-59.2h-234.24v-200.704h66.944v-601.984h736.128v601.984h66.88v200.704h-234.176zM580.224 795.264c11.392 19.712 32.128 40.64 57.344 57.344 29.632 19.648 61.44 31.36 85.504 31.36 11.584 0 15.936-2.88 16.448-3.584 4.8-6.848-10.944-47.36-64.832-83.2-29.568-19.648-61.632-31.488-85.568-31.488-11.584 0-15.936 2.88-16.448 3.648-0.64 1.024-1.92 9.344 7.552 25.92v0zM284.608 880.32c0.448 0.768 5.056 3.648 16.64 3.648 23.808 0 55.872-11.712 85.504-31.36 53.824-35.84 69.376-76.288 64.768-83.264-0.448-0.768-4.992-3.648-16.64-3.648-23.808 0-55.872 11.84-85.44 31.488-25.024 16.704-45.888 37.632-57.216 57.408-9.536 16.448-8.192 24.832-7.616 25.728v0zM378.176 26.176h-167.296v535.424h167.296v-535.424zM378.176 628.48h-234.176v66.944h234.24v-66.944h-0.064zM578.944 26.176h-133.824v669.248h133.824v-669.248zM813.184 26.176h-167.296v535.424h167.296v-535.424zM880.128 628.48h-234.24v66.944h234.24v-66.944z" />
<glyph unicode="&#xe90a;" glyph-name="pingjia" d="M348.16 217.6h-40.96c-14.131 0-25.59 11.459-25.59 25.6s11.459 25.6 25.59 25.6h40.96c14.141 0 25.6-11.459 25.6-25.6s-11.459-25.6-25.6-25.6zM348.16 586.24h-40.96c-14.131 0-25.59 11.459-25.59 25.6s11.459 25.6 25.59 25.6h40.96c14.141 0 25.6-11.469 25.6-25.6s-11.459-25.6-25.6-25.6zM348.16 401.91h-40.96c-14.131 0-25.59 11.469-25.59 25.61s11.459 25.6 25.59 25.6h40.96c14.141 0 25.6-11.459 25.6-25.6s-11.459-25.61-25.6-25.61zM512-58.88c-279.941 0-506.88 226.939-506.88 506.88s226.939 506.88 506.88 506.88c74.762 0 145.756-16.2 209.644-45.251 24.596-17.777 5.202-47.391-16.916-37.315-58.747 26.726-124.006 41.605-192.727 41.605-257.321 0-465.92-208.599-465.92-465.92s208.599-465.91 465.92-465.91 465.91 208.589 465.91 465.91c0 35.4-3.932 69.857-11.407 103.004-7.68 36.495 36.68 41.544 39.967 9.042 8.11-36.045 12.411-73.544 12.411-112.046 0-279.941-226.939-506.88-506.88-506.88zM471.040 268.8h327.68c14.141 0 25.6-11.459 25.6-25.6s-11.459-25.6-25.6-25.6h-327.68c-14.131 0-25.6 11.459-25.6 25.6s11.459 25.6 25.6 25.6zM471.040 586.24c-14.131 0-25.6 11.459-25.6 25.6s11.459 25.6 25.6 25.6h92.16c14.141 0 25.6-11.469 25.6-25.6s-11.459-25.6-25.6-25.6h-92.16zM587.602 415.734c-1.044-1.065-2.202-1.946-3.379-2.775-4.618-6.636-12.298-11.039-21.023-11.039h-92.16c-14.131 0-25.6 11.469-25.6 25.61s11.459 25.6 25.6 25.6h81.603l354.796 344.596c10.004 10.004 26.204 10.004 36.198 0 10.004-10.004 10.004-26.204 0-36.198l-356.035-345.795z" />
<glyph unicode="&#xe90b;" glyph-name="pingjia_1" d="M820 448c0 16.569 13.431 30 30 30s30-13.431 30-30v-261.083c0-28.914-2.975-44.318-11.56-60.37-8.025-15.006-19.98-26.962-34.987-34.987-16.052-8.585-31.456-11.56-60.37-11.56h-522.166c-28.914 0-44.318 2.975-60.37 11.56-15.006 8.025-26.962 19.98-34.987 34.987-8.585 16.052-11.56 31.456-11.56 60.37v522.166c0 28.914 2.975 44.318 11.56 60.37 8.025 15.006 19.98 26.962 34.987 34.987 16.052 8.585 31.456 11.56 60.37 11.56h261.083c16.569 0 30-13.431 30-30s-13.431-30-30-30h-261.083c-19.856 0-25.903-1.168-32.074-4.468-4.55-2.434-7.941-5.825-10.375-10.375-3.3-6.171-4.468-12.218-4.468-32.074v-522.166c0-19.856 1.168-25.903 4.468-32.074 2.434-4.55 5.825-7.941 10.375-10.375 6.171-3.3 12.218-4.468 32.074-4.468h522.166c19.856 0 25.903 1.168 32.074 4.468 4.55 2.434 7.941 5.825 10.375 10.375 3.3 6.171 4.468 12.218 4.468 32.074v261.083zM762.347 754l56.569-56.569-303.948-303.947c-3.286-3.287-4.542-4.305-6.093-5.274-1.41-0.904-3.050-1.606-4.803-2.013l-0.106-0.021c-1.781-0.41-3.39-0.579-8.037-0.579h-35.16c-3.566 0-4.86 0.372-6.163 1.069-1.295 0.695-2.329 1.729-3.005 2.985l-0.019 0.039c-0.697 1.304-1.069 2.597-1.069 6.163v35.16c0 4.648 0.169 6.256 0.58 8.037 0.428 1.859 1.13 3.5 2.071 4.973l-0.038-0.063c0.97 1.55 1.987 2.806 5.274 6.092l303.947 303.948zM835.859 799.496l27.561-27.561c5.044-5.043 6.347-7.397 7.205-10.227s0.858-5.724 0-8.553c-0.858-2.83-2.161-5.184-7.205-10.227l-20.851-20.852-56.569 56.569 20.852 20.851c5.043 5.044 7.397 6.347 10.227 7.205 1.279 0.408 2.75 0.643 4.276 0.643s2.997-0.235 4.379-0.671l-0.103 0.028c2.83-0.858 5.184-2.161 10.227-7.205z" />
<glyph unicode="&#xe90c;" glyph-name="service_icon" d="M956.44 517.44h-37c-39.16 191.56-209.94 333.34-407.44 333.34s-368.27-141.78-407.4-333.34h-37c-30.685-0.011-55.56-24.869-55.6-55.546v-305.564c0.051-46.001 37.329-83.279 83.325-83.33h368.825c9.785-16.724 27.66-27.78 48.116-27.78 30.685 0 55.56 24.875 55.56 55.56s-24.875 55.56-55.56 55.56c-20.457 0-38.331-11.056-47.974-27.518l-0.142-0.262h-368.82c-15.336 0.017-27.763 12.444-27.78 27.778v27.772h111.12c30.671 0.034 55.526 24.889 55.56 55.557v222.223c-0.034 30.671-24.889 55.526-55.557 55.56h-17.583c38.060 160.41 183.55 277.77 350.91 277.77s312.85-117.36 350.9-277.78h-17.57c-30.671-0.034-55.526-24.889-55.56-55.557v-222.213c0.034-30.671 24.889-55.526 55.557-55.56h111.113c30.669 0.040 55.52 24.891 55.56 55.556v222.224c-0.046 30.665-24.895 55.51-55.556 55.55h-0.004zM178.59 239.67h-111v222.22h111.080zM956.37 239.67h-111v222.22h111.070z" />
<glyph unicode="&#xe90d;" glyph-name="share" d="M480.766 895.617h-320.333c-53.057 0-96.049-42.894-96.049-95.806v-703.622c0-52.627 42.894-95.806 95.806-95.806h703.622c52.627 0 95.806 43.009 95.806 96.064v287.79h-63.945v-287.79c0-17.649-14.46-32.119-31.86-32.119h-703.622c-17.468 0-31.86 14.422-31.86 31.86v703.622c0 17.564 14.331 31.86 32.104 31.86h320.333v63.945zM870.249 733.155c-9.385-1.336-20.51-3.897-33.378-8.093-41.248-13.45-89.192-40.637-143.537-85.141-12.559-10.284-24.343-20.881-35.379-31.765-45.813-45.178-77.094-93.302-96.6-141.191-6.733-16.531-11.516-31.766-14.678-45.279-1.804-7.713-2.652-12.86-2.875-15.009l-63.603 6.61c1.733 16.672 8.070 43.761 21.934 77.799 22.677 55.676 58.715 111.118 110.922 162.601 12.435 12.262 25.683 24.176 39.765 35.707 68.336 55.96 127.403 87.396 176.121 100.931l-142.674 42.518 14.295 59.977 253.048-75.411-61.212-256.859-59.089 17.609 36.94 154.994z" />
<glyph unicode="&#xe90e;" glyph-name="shezhi" horiz-adv-x="1025" d="M1019.825 510.681c0.889-7.411 1.536-14.875 2.183-22.367 1.051-13.339 2.048-26.679 2.048-40.287s-0.997-26.948-2.048-40.287c-0.647-7.465-1.294-14.956-2.183-22.34 0 0 0 0 0.027 0-2.398-19.51-6.009-38.59-10.51-57.372-48.399-11.965-94.453-45.003-123.718-95.692s-34.844-107.118-21.046-154.978c-14.067-13.393-28.942-25.87-44.464-37.592 0 0.027-0.027 0.027-0.027 0.054-24.199-18.271-50.016-34.493-77.233-48.372-0.135-0.081-0.296-0.162-0.431-0.216-13.312-6.791-26.975-12.989-40.961-18.594-1.132-0.458-2.318-0.808-3.449-1.267-13.42-5.282-27.056-10.106-41.015-14.229-34.547 36.056-86.288 59.501-144.953 59.501s-110.406-23.472-144.953-59.501c0 0 0 0 0 0-13.959 4.123-27.595 8.947-41.015 14.229-1.159 0.458-2.318 0.808-3.476 1.267-13.959 5.605-27.622 11.803-40.934 18.594-0.162 0.054-0.296 0.135-0.431 0.216-27.218 13.878-53.034 30.101-77.233 48.372-0.027-0.027-0.027-0.027-0.027-0.054-15.522 11.722-30.424 24.199-44.491 37.592 13.824 47.86 8.246 104.289-21.019 154.978s-75.347 83.728-123.718 95.692c-4.5 18.783-8.111 37.862-10.51 57.345 0.027 0 0.027 0 0.027 0-0.889 7.411-1.536 14.902-2.21 22.367-1.024 13.339-2.021 26.679-2.021 40.287s0.997 26.948 2.021 40.287c0.674 7.492 1.32 14.956 2.21 22.367 0 0 0 0-0.027 0 2.398 19.483 6.009 38.59 10.51 57.345 48.372 11.965 94.426 45.003 123.691 95.692s34.844 107.091 21.046 154.978c14.067 13.393 28.942 25.843 44.464 37.592 0-0.027 0.027-0.054 0.027-0.081 24.199 18.271 50.042 34.52 77.26 48.426 0.135 0.054 0.269 0.108 0.404 0.189 13.339 6.791 27.002 12.989 40.988 18.594 1.132 0.458 2.291 0.808 3.422 1.267 13.42 5.282 27.083 10.106 41.069 14.229 34.547-36.030 86.288-59.474 144.926-59.474s110.379 23.445 144.926 59.474c13.986-4.123 27.622-8.947 41.069-14.229 1.132-0.458 2.291-0.808 3.422-1.267 13.986-5.605 27.649-11.803 40.988-18.594 0.135-0.081 0.269-0.135 0.404-0.189 27.218-13.905 53.034-30.155 77.26-48.426 0 0.027 0 0.054 0.027 0.081 15.522-11.749 30.397-24.199 44.464-37.592-13.797-47.887-8.219-104.289 21.046-154.978s75.32-83.728 123.664-95.692c4.527-18.756 8.138-37.835 10.51-57.345 0 0 0 0 0 0zM963.315 526.176c-49.369 20.48-94.076 58.316-124.284 110.649-30.074 52.091-40.53 109.436-33.793 162.227-40.018 33.389-85.641 60.337-135.522 78.634-42.389-32.392-97.39-52.091-157.673-52.091s-115.284 19.699-157.673 52.091c-49.881-18.298-95.504-45.246-135.549-78.634 6.764-52.791-3.719-110.137-33.793-162.227-30.182-52.333-74.889-90.168-124.257-110.649-4.393-25.412-6.845-51.471-6.845-78.149s2.452-52.737 6.845-78.149c49.369-20.454 94.076-58.316 124.311-110.622 30.074-52.091 40.53-109.463 33.766-162.281 40.018-33.362 85.641-60.31 135.495-78.607 42.389 32.392 97.417 52.117 157.7 52.117s115.311-19.726 157.7-52.117c49.854 18.298 95.45 45.246 135.495 78.607-6.791 52.818 3.692 110.19 33.766 162.281 30.209 52.306 74.916 90.168 124.311 110.649 4.366 25.385 6.845 51.444 6.845 78.122s-2.479 52.737-6.845 78.149zM512.043 259.66c-104.046 0-188.394 84.347-188.394 188.394 0 104.019 84.347 188.367 188.394 188.367 104.019 0 188.367-84.347 188.367-188.367 0-104.046-84.347-188.394-188.367-188.394zM512.043 582.444c-74.242 0-134.39-60.175-134.39-134.39 0-74.242 60.148-134.417 134.39-134.417 74.215 0 134.39 60.175 134.39 134.417 0 74.215-60.175 134.39-134.39 134.39z" />
<glyph unicode="&#xe90f;" glyph-name="shoucang" d="M896 832h-384l-128 128h-256c-70.656 0-128-57.344-128-128v-768c0-70.656 57.344-128 128-128h768c70.656 0 128 57.344 128 128v640c0 70.656-57.344 128-128 128zM512 58.88c-102.464 51.2-320 256-320 409.6 0 128 102.4 179.2 179.2 179.2s140.8-76.8 140.8-76.8 64 76.8 140.736 76.8c76.864 0 179.264-51.2 179.264-179.2 0-153.6-217.6-358.4-320-409.6z" />
<glyph unicode="&#xe910;" glyph-name="tuikuanguanli" d="M512-64c282.77 0 512 229.23 512 512s-229.23 512-512 512-512-229.23-512-512 229.23-512 512-512zM903.75 435.91c-27.693-0.266-163.466 78.147-167.754 82.235-10.314 9.832-6.416 22.073 4.106 23.746 10.524 1.675 69.611 8.7 69.611 8.7-36.315 97.060-117.346 174.576-223.698 199.7-169.745 40.115-345.285-73.673-384.080-247.335-0.334-1.482-2.678-19.187-16.74-18.626-9.517 0.38-40.699 12.779-51.972 18.067-12.87 6.036-16.347 4.476-12.446 23.906 44.153 220.774 270.253 369.564 487.267 318.656 180.098-42.241 305.206-198.519 318.952-376.579 2.302-23.862-9.846-32.34-23.247-32.468v-0.003zM620.298 387.52c17.827 0 32.28-14.438 32.28-32.279 0-17.81-14.453-32.28-32.28-32.28h-64.558v-40.348c0-22.288-18.062-40.35-40.35-40.35-22.287 0-40.35 18.061-40.35 40.35v40.348h-64.559c-17.826 0-32.277 14.471-32.277 32.28 0 17.843 14.451 32.279 32.278 32.279h64.56v32.28h-64.56c-17.827 0-32.278 14.468-32.278 32.278 0 17.842 14.451 32.28 32.278 32.28h64.56v2.208l-71.636 71.62c-12.696 12.705-12.696 33.288 0 45.978s33.272 12.687 45.968 0l65.473-65.458 65.728 65.725c12.695 12.674 33.274 12.674 45.968 0 12.697-12.702 12.697-33.287 0-45.976l-70.8-70.8v-3.295h64.557c17.827 0 32.28-14.439 32.28-32.28 0-17.813-14.453-32.278-32.28-32.278h-64.559v-32.281l64.556-0.001zM296.458 341.97c14.16-9.055 10.748-27.24-4.813-28.86-15.562-1.618-64.293-5.91-64.293-5.91 38.633-90.537 116.928-161.92 218.167-185.832 169.742-40.097 343.333 68.186 382.14 241.849 0.796 3.564 0.77 3.004 2.16 10.654 1.388 7.65 3.637 19.287 18.58 14.108s51.392-15.895 62.747-18.931c11.354-3.035 10.076-7.512 8.654-18.063-0.434-3.209-1.090-6.147-1.773-9.236-50.808-225.802-271.97-366.664-493.971-314.571-179.886 42.195-304.926 198.125-318.916 375.916-1.898 30.552 19.687 36.788 41.751 25.116 17.358-9.181 135.403-77.184 149.564-86.239v-0.002z" />
<glyph unicode="&#xe911;" glyph-name="youhuiquan" d="M486.401 422.4h-102.4c-14.138 0-25.6-11.462-25.6-25.6s11.462-25.6 25.6-25.6v0h102.4v-76.8c0-14.138 11.462-25.6 25.6-25.6s25.6 11.462 25.6 25.6v0 76.8h102.4c14.138 0 25.6 11.462 25.6 25.6s-11.462 25.6-25.6 25.6v0h-102.4v51.2h102.4c14.138 0 25.6 11.462 25.6 25.6s-11.462 25.6-25.6 25.6v0h-91.802l84.326 84.275c4.639 4.639 7.508 11.047 7.508 18.125 0 14.156-11.476 25.632-25.632 25.632-7.078 0-13.486-2.869-18.125-7.508v0l-84.275-84.326-84.275 84.326c-4.639 4.639-11.047 7.508-18.125 7.508-14.156 0-25.632-11.476-25.632-25.632 0-7.078 2.869-13.486 7.508-18.125v0l84.326-84.275h-91.802c-14.138 0-25.6-11.462-25.6-25.6s11.462-25.6 25.6-25.6v0h102.4v-51.2zM973.723 303.002c27.75-4.762 50.278-31.283 50.278-60.262v-153.139c0-28.314-23.296-51.251-50.79-51.251h-922.419c-28.064 0.058-50.792 22.821-50.792 50.893 0 0.126 0 0.252 0.001 0.378v-0.019 153.088c0 28.57 22.682 53.914 50.278 60.314 0 0 103.322-8.602 103.322 144.998s-103.322 144.998-103.322 144.998c-27.75 4.762-50.278 31.283-50.278 60.262v153.139c0 28.262 23.296 51.2 50.79 51.2h922.419c28.058 0 50.79-22.784 50.79-51.2v-153.088c0-28.57-22.682-53.914-50.278-60.314 0 0-103.322 8.602-103.322-144.998s103.322-144.998 103.322-144.998z" />
<glyph unicode="&#xe912;" glyph-name="zuji" d="M99.083 838.424c0-66.953 54.276-121.229 121.229-121.229s121.229 54.276 121.229 121.229v0c0 66.953-54.276 121.229-121.229 121.229s-121.229-54.276-121.229-121.229v0zM391.797 885.443c0-40.118 32.522-72.639 72.639-72.639s72.639 32.522 72.639 72.639v0c0 40.118-32.522 72.639-72.639 72.639s-72.639-32.522-72.639-72.639v0zM596.154 842.874c0-40.118 32.522-72.639 72.639-72.639s72.639 32.522 72.639 72.639v0c0 40.118-32.522 72.639-72.639 72.639s-72.639-32.522-72.639-72.639v0zM779.638 740.638c0-40.118 32.522-72.639 72.639-72.639s72.639 32.522 72.639 72.639v0c0 40.118-32.522 72.639-72.639 72.639s-72.639-32.522-72.639-72.639v0zM390.458 716.333c0 0-91.729 4.437-152.372-55.675s-61.65-111.096-29.244-163.865 102.465-49.738 97.334-170.416c-5.131-120.68-54.196-121.622-61.556-193.401s9.565-168.784 173.076-193.557 325.879 104.9 361.943 221.819c36.063 116.919 85.375 215.796 79.51 318.358-6.838 119.552-64.526 235.43-208.121 236.083s-260.57 0.655-260.57 0.655z" />
<glyph unicode="&#xe913;" glyph-name="zuji_1" d="M742.4 742.4c0 12.8 6.4 25.6 12.8 38.4 12.8 6.4 25.6 12.8 38.4 12.8s25.6-6.4 38.4-12.8c12.8-6.4 12.8-25.6 12.8-38.4s-6.4-25.6-12.8-38.4c-12.8-6.4-25.6-12.8-38.4-12.8s-25.6 6.4-38.4 12.8c-6.4 12.8-12.8 25.6-12.8 38.4zM601.6 832c0 12.8 6.4 32 19.2 44.8s25.6 19.2 44.8 19.2c19.2 0 32-6.4 44.8-19.2s19.2-25.6 19.2-44.8c0-19.2-6.4-32-19.2-44.8s-25.6-19.2-44.8-19.2c-19.2 0-32 6.4-44.8 19.2s-19.2 25.6-19.2 44.8zM416 857.6c0 19.2 6.4 38.4 19.2 51.2s32 19.2 51.2 19.2c19.2 0 38.4-6.4 51.2-19.2s19.2-32 19.2-51.2c0-19.2-6.4-38.4-19.2-51.2s-32-19.2-51.2-19.2c-19.2 0-38.4 6.4-51.2 19.2s-19.2 32-19.2 51.2zM179.2 844.8c0 25.6 12.8 44.8 25.6 64 19.2 19.2 44.8 25.6 64 25.6 25.6 0 51.2-12.8 64-25.6 19.2-19.2 25.6-38.4 25.6-64s-12.8-44.8-25.6-64c-19.2-19.2-44.8-25.6-64-25.6-25.6 0-51.2 12.8-64 25.6-19.2 19.2-25.6 38.4-25.6 64zM614.4 729.6h-249.6c-83.2-6.4-147.2-70.4-147.2-153.6 0-57.6 32-102.4 76.8-134.4 0 0 89.6-44.8 0-268.8-6.4-19.2-12.8-38.4-12.8-57.6 0-83.2 70.4-153.6 160-153.6 38.4 0 76.8 12.8 102.4 38.4 160 128 262.4 320 262.4 537.6v6.4c0 96-83.2 185.6-192 185.6z" />
</font>
</defs>
</svg>
